<svg version="1" xmlns="http://www.w3.org/2000/svg" width="653.333" height="653.333" viewBox="0 0 490.000000 490.000000"><path d="M220.8 10.1c-10.2 1.1-16 1.9-18.8 2.4-1.4.3-3.8.7-5.5 1-13 1.9-38.1 9.4-53.5 16.1-31.3 13.5-61.7 35.7-83.5 60.9-3.3 3.9-6.5 7.5-7 8.1-.6.6-3.9 5.1-7.4 10.1-12.3 17.4-22.8 38-29.9 58.4-3.2 9.2-8.6 30.3-9.7 38.2-.3 2.7-.8 5.9-1.1 7-1.8 8.7-2.4 39.2-1.1 55.4 3.6 45.8 23 92.9 52.9 128.5 4.6 5.6 19 20.1 25.5 25.8 16.4 14.6 42.6 30.6 63.8 39 18.9 7.6 41.7 14 55.5 15.5 1.4.2 3.8.6 5.4.9 10.8 2 48.2 2.8 63.1 1.4 37.7-3.8 78.3-17.6 106.8-36.3 2.4-1.5 2.6-1.4 12.3 7.2 5.4 4.9 11.8 10.7 14.3 12.9 18.9 17.8 45.9 18.7 64.5 2.3 16.2-14.3 20.7-38.8 10.6-57.8-3.4-6.3-10.4-14.2-18.4-20.7-2.7-2.1-6.8-5.6-9.2-7.7l-4.2-3.8 4.9-7.9c14-22.6 24.7-49.2 29.8-74 2.8-13.2 3-14.8 3.7-21 1.2-12.4 1.4-16.1 1.3-30 0-18.6-.6-25.6-4.3-46-3-16.6-10.1-37.8-19.3-57C440 92.5 397.5 51.7 349.9 31c-5.2-2.2-10.3-4.5-11.4-5-7-3.3-36.4-11.5-45-12.5-2.2-.3-6.2-.9-9-1.5-2.7-.5-7.2-1.2-10-1.5-7.5-1-46-1.3-53.7-.4zm36.9 92.3c41.7 3.9 78.5 26.7 101 62.6 5.7 8.9 14.6 28.3 15.8 34 .2.8 1.2 5.1 2.3 9.5 3.1 11.9 4.4 23.6 4.3 37.5-.2 14.2-.3 15.6-2.7 30.5-1.5 9.4-8.2 30.5-9.7 30.5-.4 0-2.5-1.5-4.5-3.3-2-1.9-6.4-5.8-9.7-8.8-3.4-3-9.9-8.8-14.5-13-21.4-19.2-26.1-23.1-31.5-26.3-16.4-10-40.6-6.9-54.5 6.7-10.9 10.8-15.7 22.9-14.8 37.5 1.1 15.8 6.8 25.7 22.9 39.3 2.9 2.6 10.6 9.1 16.9 14.5 19 16.2 21.4 18.3 23.5 19.8 1.9 1.4 1.7 1.6-3.8 4-3.2 1.4-6.4 2.6-7.2 2.6-.7 0-1.6.4-1.9.9-.3.4-3.4 1.4-6.8 2.1-3.5.7-7 1.5-7.8 1.6-.8.2-3.5.6-6 1-2.5.3-5.8.8-7.4 1-4.2.7-29.9.8-32.2.1-1-.3-4-.8-6.5-1.1-7.4-1-19.6-4.3-29.4-8.1-45.9-17.7-79.5-63.2-85.2-115.3-1.4-12.5-.8-36.9 1.2-45.5.3-1.2.7-3.4 1-5 1.2-6.7 1.8-8.7 4.6-17 11.5-34.4 36-63.4 66.6-78.7 12.1-6 23.9-10 34.3-11.6 1.9-.3 4-.7 4.7-.9.7-.2 4.5-.7 8.5-1.1 4-.3 7.4-.7 7.5-.8.4-.3 14.9.2 21 .8z"/></svg>